<?xml version="1.0" encoding="UTF-8"?>
<svg id="Calque_2" data-name="Calque 2" xmlns="http://www.w3.org/2000/svg" viewBox="0 0 850.39 573.88">
  <defs>
    <style>
      .cls-1 {
        fill: #eb5c63;
        stroke-width: 0px;
      }
    </style>
  </defs>
  <path class="cls-1" d="m185.37,241.09c-.91,1.17,2.06-1.98,0,0h0Z"/>
  <path class="cls-1" d="m224.14,251.37c-7.77,24.37-7.03,48.05,6.22,70.48,8.48,14.35,26.54,19.59,40.71,17.45,12.64-1.91,24.66-6.88,34.21-15.77,8.18-7.62,17.69-14.44,20.8-26.64,1.72.22,3.63.03,5.15.72,9.71,4.44,18.59,1.95,27.07-3.14,10.51-6.31,18.36-15.37,25.38-25.25,1.05-1.49,2.65-2.59,4.31-4.15.84,1.52,1.13,1.95,1.32,2.41,3.95,9.28,7.85,18.54,15.68,25.5,6.51,5.78,12.54,6.8,20.95,2.89,4.55-2.11,9.77-9.99,9.17-14.59-1.04-8-6.47-11.57-13.85-13.28-1.53-.36-3.22-2.16-3.91-3.72-7.13-16.1-11.47-32.85-12.03-50.58-.12-3.76-2.26-7.58-3.97-11.13-1.35-2.81-3.85-5.05-5.28-7.84-2.7-5.27-8.24-8.49-14.17-8.63-3.92-.09-7.87.4-11.78.87-12.18,1.49-23.47,4.92-32.24,14.28-11.91,12.72-18.59,27.9-22.57,44.66-2.74,11.53-4.5,22.87-1.04,34.51.31,1.04-.24,2.34-.35,3.22-2.11.55-4.15.53-5.44,1.51-5.57,4.24-11.24,8.44-16.25,13.3-5.95,5.78-12.23,10.92-20.4,12.65-4.66.98-9.87,1.82-14.41.43-4.5-1.38-7.12-6.37-7-9.07.03-.69,4.3-.58,6.06-.87,8.69-1.42,15.57-6.72,21.61-12.83,17.53-17.72,29.49-40.85,34.68-66.95,2.95-12.61-2.37-31.29-19.56-35.31-11.18-2.62-20.32,2.51-29.13,8.28-3.87,2.53-14.44,12.66-22.58,23.06-2.51,3.21-9.44,14.26-11.19,17.95l-6.18,15.58Zm23.23,23.26c-.96-22.39,23.61-55.83,37.74-57.71,2.67-.35,5.33,1.18,6.22,3.72,2.23,6.36-2.61,16.6-4.55,20.19-6.29,11.66-10.97,21.05-19.59,29.55-4.22,4.15-8.58,6.81-10.26,7.36-2.17.71-3.65,1.39-6.99.32-1.5-.48-2.5-1.86-2.57-3.43Zm127.51-53.41c-4.38,17.64-8.55,32.21-22.33,44.68-1.17,1.06-5.22,3.77-6.6,4.35-2.59,1.1-3.87.89-5.35.41-1.84-.59-2.7-3.37-2.87-4.85-1.04-8.8,2.53-19.57,6.55-29.9.61-1.56,1.29-3.11,2.11-4.57,6.36-11.3,16.87-15.43,24.19-15.44,3.79-.12,5.44.74,4.3,5.33Z"/>
  <path class="cls-1" d="m171.05,136.26c7.41-1.96,15.25-2.69,23.67-1.79,5.37.57,11.34,2.22,15.6,5.33,11.34,8.26,16.39,23.04,12.87,35.19-3.18,10.96-15.58,26.42-22.36,35.63-9.71,13.19-18.27,22.37-27.9,33.12-1.92,2.23-.91,1.17,0,0-2.04-14.59-4.14-28.07-5.91-41.19-1.44-10.67-2.67-21.36-4.15-32.03-1.01-7.26-8.93-13.5-15.86-12.78-7.16.75-12.24,7.01-11.96,15.06.16,4.78.43,9.59,1.14,14.31,3.08,20.43,6.44,40.82,9.49,61.25,1.96,13.12,3.54,26.29,5.34,39.43,2.11,15.39,4.22,30.78,6.44,46.15.93,6.42,1.65,12.92,3.35,19.15,1.44,5.29,10.37,10.8,14.44,9.91,7.34-1.62,12.59-7.89,12.17-15.29-.26-4.74-1.41-9.42-2.05-14.14-1.73-12.77-3.58-25.53-5-38.34-.48-4.36-1.9-14.43-1.29-15.73,2.09-3.01,9.27-10.13,17.53-20.25,0,0,10.35-11.63,24.15-29.61,7.18-9.6,23.25-36.84,23.25-36.84,6.46-14.28,8.1-25.15,4.36-40.93-3.44-14.53-10.19-27.24-22.71-35.95-20.6-14.34-43.17-13.93-66.03-7.21-15.24,4.48-28.62,12.8-40.89,22.83-13.91,11.37-26.63,24.08-36.16,39.24-13.74,21.85-21.06,45.67-19.6,72.04,1.34,24.13,13.92,40.24,33.92,51.68,5.31,3.04,10.8,1.6,15.03-2.84,4.15-4.36,5.37-10.1,1.99-15.02-2.52-3.67-6.16-6.74-9.73-9.5-8.98-6.95-13.61-16.83-14.43-24.33-2.27-20.82,4.11-33.18,14.47-51.43,7.77-13.68,18.39-25.02,30.56-35,11.19-9.18,23.03-16.61,36.25-20.11Z"/>
  <path class="cls-1" d="m458.98,173.04c2.58-1.98,5.02-4.23,6.71-5.76,13.52-12.27,28.11-23.09,44.13-31.84,8.45-4.62,14.85-2.94,20.2,3.94,4.2,5.41,3.87,13.04-1.78,20.07-6.68,8.3-14.14,15.98-20.88,24.24-5.48,6.73-10.46,13.87-15.5,20.94-2.04,2.85-1.48,5.38,1.93,6.9,11.75,5.24,23.19,11.42,35.34,15.43,10.6,3.5,15.63,4.69,26.72,6.61,4.62.61,8.3.19,12.52-1.13,7.4-2.31,14.04.19,17.18,7.13,3.16,6.99.87,13.43-5.9,17.42-9.87,5.81-20.62,5.66-31.3,4.16-20.44-2.87-39.38-10.63-57.96-19.23-3.18-1.47-6.06-3.61-9.05-5.48-4.52-2.83-5.79-2.43-7.52,2.63-4.32,12.68-8.28,25.5-12.97,38.04-3.52,9.4-14.1,17.01-23.86,8.47-3.88-3.39-6.63-10.09-6.78-15.37-.89-30.45-1.03-60.92-1.07-91.39-.03-23.87.23-47.75.92-71.61.76-5.25,1.29-8.22,3.69-11.66,3.71-5.31,10.54-6.08,16.44-3.82,5.36,2.06,9.77,8.2,9.68,13.86-.32,20.44-.76,40.88-1.14,61.33-.02,1.05.08,3.16.25,6.1Z"/>
  <path class="cls-1" d="m645.29,299.95c-5.96.72-11.04,1.34-16.13,1.95-8.76,1.06-17.5,2.56-26.29,3.05-12.79.72-25.63.78-38.44,1.01-8.59.16-15.6-5.79-15.72-13.15-.13-7.85,7.08-14.69,15.77-14.57,7.82.11,15.66,1.23,23.43.81,12.18-.65,24.4-1.64,36.45-3.51,33.62-5.19,48.38-12.77,79.05-26.82,21.71-9.95,21-8.18,36.03-19.83,3.36-2.76,10.35-10.39,13-13.95,3.38-4.54,7.72-7.17,13.46-6.83,5.08.3,10.44,4.43,11.35,9.75.55,3.21-.5,6.89-1.52,10.14-2.79,8.92-9.72,14.62-16.81,19.93-11.73,8.43-18.77,12.87-28.91,17.93-18.91,8.46-21.84,10.84-40.9,18.94-3.85,1.64-8.07,2.52-11.74,4.46-1.89.99-4.12,3.49-4.2,5.39-.52,12.03-.44,24.08-.66,36.12-.15,8.53-.72,17.05-.63,25.57.2,19.86.55,39.72,1.12,59.57.19,6.53,1.23,13.03,1.86,19.55,1.24,12.85-4.85,20.19-14.33,20.55-6.51.25-11.3-4.1-13.38-11.41-2.13-7.48-4.04-14.49-1.56-22.73,1.73-5.74-.33-12.61-.6-18.98-.41-9.76-.95-19.53-1.06-29.29-.16-15.09-.15-30.19.07-45.28.13-9.03.8-18.05,1.28-28.38Z"/>
  <path class="cls-1" d="m441.23,486.05c-25.44-.92-40.38-13.04-51.15-31.23-6.79-11.48-9.1-24.16-9.98-37.52-1.9-28.83,6.36-54.39,22.82-77.57,5.35-7.54,12.22-13.73,21.25-16.9,16.6-5.82,33.65-9.79,51.23-10.71,10.82-.57,16.74,6.81,15.53,17.66-.18,1.63.73,3.84,1.88,5.1,16.93,18.5,20.76,40.57,16.78,64.27-2.12,12.61-4.51,25.57-9.5,37.21-8.38,19.53-20.35,36.98-41.42,45.23-6.45,2.53-13.52,3.49-17.45,4.46Zm42.64-99.61c-.59-5.44-1.07-10.91-1.81-16.33-1.77-13-12.19-25.68-30.49-19.67-5.01,1.65-10.02,2.57-15.25-.44-3.41-1.96-6.88-.4-9.29,2.91-11.23,15.36-18.37,32.26-19.02,51.48-.47,13.7-.56,27.38,6.52,39.91,10.04,17.76,27.63,20.35,42.11,9.06,9.42-7.35,15.31-17.76,19.83-28.48,5.11-12.11,7.45-25.08,7.4-38.45Z"/>
  <path class="cls-1" d="m553.73,423.07c.81-.37,1.5-.96,1.99-1.7,11.49-17.14,14.45-27.9,17.17-48.8,1.01-10.53-.23-22.36,1.55-31.52,1.55-8.03,6.57-10.65,13.3-11.42,6.4-.73,12.73,4.42,13.8,11.49,1.39,9.23,1.46,18.65,2.82,27.88,2.97,20.08,6.33,40.11,9.76,60.12.27,1.57,2.12,3.43,3.7,4.13,8.7,3.9,12.05,10.53,8.77,18.07-2.92,6.71-13.39,10.22-20.58,7.36-13.46-5.34-17.26-21.08-19.86-29.47-.27-1.57-.86-2.9-1.76-7.26-.98,1.27-2.91,5.3-3.73,6.67-4.8,7.96-8.2,17.26-14.54,23.69-15.51,15.74-38.15,2.14-43.46-15.53-3.68-12.24-3.53-10.49-4.71-23.22-.89-9.58,1.1-29.83,1.94-39.54.88-10.21,2.12-20.4,3.1-30.6.85-8.85,4.11-12.66,12.05-15.39,8.38-2.88,18.06,6.95,16.87,15.25-2.01,13.99-3.35,28.07-5.45,42.04-1.89,12.56-4.62,22.63-.61,34.77.88,2.65,2.59,3.63,3.26,3.85,1.09.36,2.28.2,3.32-.28l1.29-.6Z"/>
  <path class="cls-1" d="m620.97,220.94c1.65-11.3,3.59-22.57,4.86-33.9,1.07-9.51,1.51-19.08,1.99-28.63.34-6.78,6.02-12.84,13.04-13.7,8.09-.99,16.48,3.75,16.75,12.48.15,4.94-1.07,9.9-1.65,14.86-.78,6.65-1.39,13.32-2.33,19.96-.97,6.92-2.37,13.8-3.33,20.72-.5,3.65-.83,7.38-.55,11.03.37,4.69-3.09,10.04-8.57,12.13-5.31,2.02-11.52,1.17-15.7-2.12-4.59-3.61-4.36-8.19-4.52-12.84Z"/>
  <path class="cls-1" d="m689.57,136.84c7.53-1.17,14.55,6.71,13.78,13.14-1.25,10.5-1.32,21.11-2.87,31.58-1.64,11.08-3.88,22.15-6.92,33.03-1.54,5.5-10.05,8.83-15.65,7.55-7.41-1.7-11.99-7.4-10.28-13.55,3.14-11.31,4.19-22.74,4.43-34.3.18-8.67,1.19-17.34,2.01-26,.63-6.63,7.36-11.49,15.5-11.45Z"/>
</svg>